<?xml version="1.0" encoding="utf-8"?>
<!-- Generator: Adobe Illustrator 23.0.6, SVG Export Plug-In . SVG Version: 6.00 Build 0)  -->
<svg version="1.1" id="Layer_1" xmlns="http://www.w3.org/2000/svg" xmlns:xlink="http://www.w3.org/1999/xlink" x="0px" y="0px"
	 viewBox="0 0 1024 768" style="enable-background:new 0 0 1024 768;" xml:space="preserve">
<g>
	<g>
		<path d="M642.6,499.82c-27.66,0-54.43,0-81.47,0c0-68.05,0-135.97,0-204.56c1.38,0,2.91,0,4.44,0c44.92,0,89.85,0.23,134.77-0.12
			c17.11-0.13,32.5,4.53,46.1,14.39c13.72,9.96,23.26,23.04,25.55,40.48c2.19,16.74,0.9,32.8-8.78,47.34
			c-6.05,9.09-14.53,15.43-23.61,21.13c-1.54,0.97-2.95,2.14-4.38,3.18c3.2,5.48,8.64,5.44,13.4,5.47
			c32.39,0.23,64.78,0.14,97.18,0.06c1.6,0,3.2-0.94,5.49-1.65c-3.18-3.63-5.69-6.47-8.18-9.33c-7.09-8.15-15.3-15.6-21.04-24.61
			c-12.62-19.8-15.53-41.08-4.33-62.73c8.43-16.3,22.22-26.15,39.67-31.23c9.35-2.72,18.89-3.21,28.53-3.2
			c37.86,0.04,75.72,0.02,113.57,0.02c1.58,0,3.16,0,4.99,0c0,22.34,0,44.4,0,67.08c-1.45,0-2.98,0-4.52,0
			c-30.79,0-61.59-0.02-92.38,0.05c-1.68,0-3.35,0.67-5.71,1.17c3.41,3.87,6.16,7.03,8.95,10.15c7.24,8.06,14.81,15.84,21.67,24.21
			c8.04,9.79,11.42,21.38,12.39,34.04c1,13.09-1.21,25.31-7.39,36.72c-9.63,17.8-24.81,27.98-44.66,31.21
			c-4.15,0.68-8.41,0.81-12.63,0.82c-52.66,0.05-105.31,0.32-157.96-0.16c-13.99-0.13-27-4.91-37.3-15.25
			c-12.79-12.85-25.63-25.65-38.45-38.46c-1.01-1.01-2.08-1.97-3.91-3.7C642.6,462,642.6,480.75,642.6,499.82z M644.16,378.45
			c15.28,0,30.29,0.01,45.29-0.03c0.74,0,1.5-0.35,2.21-0.66c5.97-2.57,8.9-8.21,7.56-14.46c-1.11-5.17-7.15-9.71-13.27-9.74
			c-12.9-0.06-25.8,0.08-38.7-0.09c-3.28-0.04-4.23,1.41-4.1,4.23C643.46,364.43,643.8,371.15,644.16,378.45z"/>
		<path d="M334.42,268.51c0-46.09,0-91.89,0-137.64c-9.34-1.69-92.4-0.73-95.46,1.24c3.03,3.34,6.08,6.59,9,9.96
			c8.19,9.46,16.84,18.58,24.33,28.56c6.4,8.52,8.88,18.78,9.3,29.54c0.48,12.29-0.76,24.25-6.57,35.25
			c-9.7,18.36-24.96,29.25-45.51,32.5c-3.63,0.57-7.35,0.8-11.03,0.8c-64.12,0.05-128.25,0.03-192.37,0.03c-1.58,0-3.16,0-4.99,0
			c0-24.21,0-48.14,0-72.68c1.45,0,2.99,0,4.52,0c51.99,0,103.99,0.02,155.98-0.06c1.94,0,3.88-0.9,6.54-1.55
			c-5.3-5.74-9.58-10.61-14.11-15.22c-7.03-7.16-13.98-14.45-18.44-23.51c-4.9-9.95-7.81-20.37-7.73-31.78
			c0.08-11.8,3.43-22.27,9.83-31.81c10.12-15.1,24.89-23.34,42.29-27.17c3.56-0.79,7.34-0.85,11.02-0.85
			c93.32-0.04,186.64-0.03,279.96-0.03c1.72,0,3.44,0,5.47,0c0,22.35,0,44.51,0,66.99c-29.36,0-58.64,0-88.37,0
			c0,45.95,0,91.59,0,137.45C383.42,268.51,359.22,268.51,334.42,268.51z"/>
		<path d="M238.86,348.02c1.98-6.42,4-12.82,5.94-19.25c3.17-10.48,6.39-20.95,9.36-31.49c0.65-2.31,1.68-2.89,3.86-2.86
			c8.8,0.09,17.6,0.04,26.4,0.04c15.94,0,31.87,0,49.13,0c-21.11,69.28-41.82,137.26-62.6,205.48c-3.8,0-7.51,0-11.23,0
			c-18.53,0-37.06-0.02-55.59,0.03c-2.35,0.01-3.46-0.32-4.28-3.18c-4.4-15.42-9.32-30.69-14.01-46.02
			c-2.51-8.22-4.92-16.48-7.39-24.72c-0.18-0.59-0.5-1.14-1.1-2.48c-2.41,7.38-4.67,14.02-6.75,20.72
			c-3.64,11.71-7.15,23.45-10.74,35.18c-1.67,5.48-3.5,10.93-5.02,16.45c-0.8,2.91-1.99,4.17-5.37,4.13
			c-20.26-0.21-40.53-0.2-60.79-0.01c-3.64,0.03-5.24-0.9-6.32-4.52c-6.19-20.74-12.66-41.39-19.07-62.07
			c-7.61-24.54-15.3-49.05-22.89-73.6c-6.55-21.17-13.01-42.37-19.74-64.29c1.59-0.38,3.11-1.05,4.63-1.06
			c25.2-0.07,50.4-0.03,75.59-0.08c2.26,0,3.48,0.41,4.21,2.95c4.95,17.02,10.14,33.97,15.52,51.85c1.82-6.43,3.43-12.12,5.04-17.82
			c3.19-11.29,6.45-22.56,9.51-33.88c0.63-2.33,1.6-3.12,4.04-3.11c26.13,0.09,52.26,0.09,78.39-0.01c2.77-0.01,3.99,1.01,4.77,3.53
			c5.17,16.67,10.44,33.32,15.67,49.97C238.31,347.94,238.59,347.98,238.86,348.02z"/>
		<path d="M1004.62,196.06c0,24.47,0,48.3,0,72.68c-1.53,0-2.94,0-4.35,0c-40.26,0-80.53,0.38-120.78-0.21
			c-13.69-0.2-26.51-4.85-36.62-14.94c-12.83-12.81-25.64-25.64-38.47-38.45c-0.99-0.99-2.03-1.92-3.61-3.41
			c0,19.35,0,37.93,0,56.77c-1.48,0.1-2.63,0.24-3.78,0.24c-24.66,0.01-49.33-0.04-73.99,0.07c-3.34,0.02-4.66-0.69-4.65-4.39
			c0.11-65.59,0.08-131.18,0.08-196.77c0-1.04,0-2.08,0-3.6c1.86,0,3.41,0,4.97,0c45.19,0,90.39,0.14,135.58-0.11
			c9.8-0.05,19.2,1.44,28.1,5.05c23.31,9.45,39.47,25.73,42.94,51.32c2.35,17.33,0.2,34.63-11.3,49.07
			c-5.69,7.14-12.93,12.77-20.71,17.65c-1.66,1.04-2.97,2.62-4.45,3.95c1.93,1.42,3.68,3.4,5.85,4.1c2.68,0.88,5.7,0.94,8.58,0.94
			c30.53,0.06,61.06,0.04,91.58,0.04C1001.16,196.06,1002.73,196.06,1004.62,196.06z M801.78,122.35c0,8.5,0,16.53,0,24.49
			c0.47,0.18,0.71,0.34,0.94,0.35c14.63,0.03,29.27,0.06,43.9,0.05c0.87,0,1.79-0.31,2.61-0.66c5.97-2.53,8.8-7.97,7.59-14.44
			c-0.91-4.88-6.53-9.64-12.36-9.72C830.36,122.22,816.27,122.35,801.78,122.35z"/>
		<path d="M544.16,499.94c-6.24,0-11.82,0-17.4,0c-17.73,0-35.47-0.11-53.2,0.1c-3.32,0.04-4.63-1.13-5.51-4.05
			c-2.22-7.37-4.78-14.63-6.96-22.01c-0.77-2.6-2-3.67-4.72-3.67c-20.53,0.07-41.06,0.05-61.6,0.01c-2.44,0-3.79,0.76-4.57,3.32
			c-2.43,7.99-5.1,15.9-7.91,23.76c-0.38,1.08-2.04,2.42-3.12,2.43c-23.46,0.14-46.93,0.1-70.4,0.11c-2.58,0-3.49-0.66-2.57-3.6
			c4.23-13.57,8.15-27.23,12.25-40.84c6.89-22.84,13.81-45.68,20.76-68.5c8.7-28.56,17.46-57.11,26.17-85.67
			c1.84-6.05,1.78-6.07,8.01-6.07c6.13,0,12.27,0.05,18.4-0.01c28.08-0.25,56.16-0.46,84.24-0.86c3.82-0.05,5.66,1.26,6.76,4.88
			c8.09,26.57,16.3,53.11,24.54,79.64c5.57,17.94,11.29,35.82,16.86,53.76c6.46,20.8,12.84,41.62,19.21,62.44
			C543.86,496.46,543.88,497.93,544.16,499.94z M426.18,359.44c-5.71,18.43-11.1,35.81-16.67,53.76c1.58,0.48,2.87,1.19,4.16,1.2
			c8.39,0.1,16.79,0,25.18,0.08c3.4,0.03,4.09-1.22,3.07-4.43c-3.01-9.44-5.73-18.97-8.65-28.43
			C431.1,374.55,428.77,367.52,426.18,359.44z"/>
		<path d="M705.63,268.74c-4.08,0-7.66,0-11.23,0c-19.87,0-39.73-0.08-59.6,0.08c-2.96,0.02-4.2-1.03-5.01-3.63
			c-2.35-7.6-4.97-15.12-7.21-22.76c-0.76-2.57-2.13-3.32-4.57-3.31c-20.53,0.04-41.07,0.05-61.6-0.01
			c-2.72-0.01-3.93,1.09-4.72,3.67c-2.41,7.86-5.02,15.65-7.78,23.4c-0.39,1.08-2.02,2.45-3.09,2.46
			c-23.47,0.14-46.93,0.11-70.4,0.11c-2.54,0-3.54-0.58-2.61-3.58c4.07-13.07,7.83-26.24,11.75-39.36
			c6.57-21.99,13.13-43.98,19.78-65.94c4.84-15.97,9.85-31.9,14.72-47.86c4.45-14.59,8.93-29.18,13.14-43.84
			c0.95-3.31,2.48-4.19,5.8-4.18c35.33,0.12,70.67,0.1,106,0.02c2.87-0.01,4.3,0.56,5.25,3.66c9.18,30.19,18.56,60.33,27.94,90.46
			c5.39,17.31,10.95,34.56,16.35,51.87c5.63,18.05,11.17,36.13,16.68,54.21C705.6,265.45,705.48,266.83,705.63,268.74z
			 M587.76,128.13c-0.53,1.93-0.78,2.95-1.08,3.94c-4.85,15.55-9.72,31.1-14.58,46.66c-1.05,3.36-0.24,4.5,3.36,4.52
			c8.26,0.05,16.53,0.04,24.79,0c3.93-0.02,4.29-0.65,3.13-4.54c-2.53-8.5-4.91-17.04-7.52-25.51
			C593.38,145.14,590.69,137.15,587.76,128.13z"/>
		<path d="M1003.82,692.37c0,2.2,0,4.18,0,6.47c-327.49,0-654.96,0-982.7,0c0-2.01,0-4.08,0-6.47
			C348.47,692.37,675.94,692.37,1003.82,692.37z"/>
		<path d="M705.67,571.26c7.38,0,15.62-0.06,23.85,0.08c1.02,0.02,2.47,0.88,2.96,1.76c9.3,17.1,18.48,34.25,27.43,50.92
			c0.01-0.13,0.13-1.19,0.13-2.26c0.01-13.32,0.15-26.65-0.09-39.97c-0.06-3.34-1.3-6.66-2.04-10.17c9.15,0,19.23,0,28.25,0
			c-0.72,3.92-2.1,8.03-2.13,12.15c-0.2,25.72-0.2,51.43,0.01,77.15c0.03,3.85,1.51,7.69,2.34,11.6c-7.98,0-16.82,0-26.02,0
			c-9.23-16.88-18.59-34-28.42-51.97c0,15.68-0.1,30.42,0.11,45.16c0.03,2.23,1.55,4.43,2.43,6.77c-9.64,0-19.66,0-28.7,0
			c0.73-4.29,2.12-8.78,2.15-13.29c0.21-25.32,0.2-50.63,0-75.95C707.92,579.38,706.52,575.52,705.67,571.26z"/>
		<path d="M1003.85,541.94c0,2,0,3.72,0,5.72c-327.56,0-655.04,0-982.75,0c0-1.82,0-3.63,0-5.72
			C348.51,541.94,675.98,541.94,1003.85,541.94z"/>
		<path d="M82.47,671.96c0.46-2.85,1.49-6.34,1.51-9.84c0.13-29.44,0.07-58.89,0.07-88.33c0-1.42,0-2.85,0-5.25
			c6.36,6.34,13.02,2.65,19.15,1.69c18.87-2.97,35.06,1.97,48.31,15.49c17.38,17.71,18.85,47.13,3.61,66.71
			c-9.04,11.61-20.85,18.5-35.43,19.38C107.05,672.56,94.3,671.96,82.47,671.96z M109,593.79c0,18.48,0,36.67,0,54.87
			c15.99-0.17,33.01-7.37,31.15-30.84C139.02,603.46,125.84,592.61,109,593.79z"/>
		<path d="M291.67,672.66c-20.62,0-40.88,0-61.42,0c3.15-4.93,3.37-10.37,3.39-15.78c0.07-23.2,0.06-46.4-0.01-69.6
			c-0.01-3.41-0.24-6.88-0.9-10.22c-0.36-1.81-1.83-3.39-3-5.41c20.57,0,41.08,0,61.91,0c0,8.87,0,17.98,0,27.14
			c-0.13,0.04-0.52,0.23-0.6,0.15c-3.9-4.44-8.97-4.91-14.46-4.67c-6.11,0.27-12.25,0.06-18.7,0.06c0,5.54,0,10.92,0,16.97
			c7.59-1.15,16.19,3.06,22.67-5.27c0,10.73,0,21.15,0,32.28c-6.51-8.18-14.99-3.4-22.74-5c0,5.91,0,11.29,0,16.34
			c9.06,0,18.02,0.24,26.96-0.17c2.28-0.11,4.45-2.3,6.91-3.66C291.67,654.68,291.67,663.49,291.67,672.66z"/>
		<path d="M360.31,641.04c1.88,2.06,3.66,4.25,5.68,6.17c4.81,4.57,12.69,7.21,19.06,4.01c6.86-3.43,8.74-12.53,3.03-17.83
			c-4.97-4.62-10.67-8.46-16.06-12.64c-7.97-6.19-14.16-13.46-13.52-24.32c0.66-11.28,6.62-23.29,19.66-26.23
			c6.41-1.44,12.65-0.26,18.98,0.22c2.63,0.2,5.32-0.35,8.18-0.57c0,9.04,0,18.81,0,28.91c-3.21-1.94-6.12-4.22-9.41-5.54
			c-2.57-1.03-5.67-1.35-8.45-1.11c-3.37,0.28-4.99,5.33-2.36,7.73c4.49,4.11,9.31,7.91,14.29,11.41
			c10.01,7.05,16.73,16.27,17.2,28.61c0.64,16.59-7.3,31.26-27.34,34.53c-6.48,1.06-12.74,0.61-19.16-0.65
			c-3.31-0.65-6.94,0.31-10.62,0.56c0-10.5,0-21.6,0-32.7C359.75,641.41,360.03,641.22,360.31,641.04z"/>
		<path d="M20.94,537.27c0-1.22,0-2.14,0-3.34c327.56,0,655.06,0,982.84,0c0.05,1.04,0.1,2.05,0.16,3.34
			C676.29,537.27,348.8,537.27,20.94,537.27z"/>
		<path d="M848.27,571.38c12.49,0,23.91,0,35.9,0c-3.74,4.61-1.36,8.15,1,12.09c3.97,6.61,7.4,13.53,11.22,20.62
			c0.61-0.91,1.16-1.57,1.55-2.32c3.54-6.72,7.02-13.47,10.58-20.18c1.75-3.3,2.84-6.51-1.03-9.98c12.81,0,24.89,0,36.81,0
			c-3.99,5.98-8.06,11.98-12.02,18.04c-7.51,11.48-15.05,22.94-22.34,34.55c-1.24,1.98-1.85,4.67-1.89,7.05
			c-0.2,10.12-0.29,20.25,0.02,30.37c0.11,3.61,1.48,7.18,2.29,10.85c-9.06,0-19.07,0-29.61,0c5.28-5.91,2.88-12.97,3.28-19.6
			c0.26-4.38-0.41-8.85,0.14-13.17c1.13-8.9-1.8-16.31-6.68-23.52c-7.61-11.25-14.75-22.83-22.12-34.24
			C853.18,578.57,850.9,575.29,848.27,571.38z"/>
		<path d="M523.25,672.6c-9.24,0-19.06,0-28.01,0c0.54-4.1,1.51-8.15,1.54-12.21c0.16-20.38,0.07-40.76,0.07-61.15
			c0-1.45,0-2.9,0-4.88c-6.23,0.68-12.51-2.01-18.21,2.69c0-8.55,0-16.86,0-25.49c20.26,0,40.55,0,61.06,0c0,8.36,0,16.71,0,25.47
			c-5.38-4.8-11.71-1.79-18.17-2.94c0,1.92,0,3.33,0,4.74c0,21.45-0.07,42.9,0.08,64.34C521.64,666.29,522.67,669.39,523.25,672.6z"
			/>
		<path d="M20.96,703.26c1.76,0,3.2,0,4.65,0c324.51,0,649.02,0,973.53,0.07c1.67,0,5.07-1.63,4.67,3.01c-1.74,0-3.18,0-4.63,0
			c-324.51,0-649.02,0-973.53-0.07C23.96,706.27,20.63,707.82,20.96,703.26z"/>
		<path d="M633.59,672.66c-9.19,0-19.17,0-28.27,0c0.64-4.03,1.83-8.09,1.86-12.16c0.17-26.23,0.16-52.47-0.01-78.7
			c-0.02-3.32-1.3-6.64-2.04-10.17c9.15,0,19.22,0,28.25,0c-0.72,3.89-2.1,8-2.13,12.11c-0.2,25.7-0.2,51.4,0.01,77.11
			C631.28,664.7,632.73,668.54,633.59,672.66z"/>
		<path d="M949.61,499.96c-1.66-2.74-0.18-6.07-0.94-9.03c-1.31-0.5-2.63-1.01-3.96-1.51c0.09-0.45,0.18-0.89,0.27-1.34
			c4.02,0,8.05-0.16,12.05,0.13c0.83,0.06,1.72,1.65,2.26,2.71c0.77,1.48,1.24,3.12,1.81,4.61c2.82-1.68,0.42-7.45,5.88-7.45
			c0,4.02,0,7.84,0,11.66c-0.41,0.12-0.82,0.25-1.24,0.37c-0.44-1.39-0.87-2.78-1.18-3.74c-0.94,0.98-2.15,2.27-3.37,3.55
			c-1.15-1.55-2.31-3.11-3.35-4.51c-0.28,1.29-0.65,2.99-1.02,4.69c-0.42-0.08-0.85-0.15-1.27-0.23c0-2.95,0-5.89,0-9.17
			c-1.63,0-2.83,0-4.43,0c0,3.05,0,6.05,0,9.05C950.62,499.82,950.11,499.89,949.61,499.96z"/>
	</g>
</g>
</svg>
